<?xml version="1.0" encoding="utf-8"?>
<!-- Svg Vector Icons : http://www.onlinewebfonts.com/icon -->
<!DOCTYPE svg PUBLIC "-//W3C//DTD SVG 1.1//EN" "http://www.w3.org/Graphics/SVG/1.1/DTD/svg11.dtd">
<svg version="1.1" xmlns="http://www.w3.org/2000/svg" xmlns:xlink="http://www.w3.org/1999/xlink" x="0px" y="0px" viewBox="0 0 1000 1000" enable-background="new 0 0 1000 1000" xml:space="preserve">
<metadata> Svg Vector Icons : http://www.onlinewebfonts.com/icon </metadata>
<g><g transform="translate(0.000000,511.000000) scale(0.100000,-0.100000)"><path d="M3662.2,4979.3c-96-48-144.1-142.2-155.6-305.4c-17.3-282.4,46.1-426.5,209.4-470.6l74.9-21.1V2831.6V1483L2751.6-956.6c-572.5-1340.8-1060.4-2497.3-1083.4-2572.2c-63.4-194-76.8-355.4-40.3-524.4c76.8-366.9,341.9-622.4,733.8-705c197.9-42.3,5081-42.3,5278.9,0c595.5,126.8,893.3,672.4,685.8,1258.3c-19.2,57.6-505.2,1202.6-1075.8,2543.4L6211.3,1481.1v1350.5V4182l74.9,21.1c111.4,28.8,188.3,126.8,203.6,261.3c21.1,163.3,1.9,340-46.1,416.8c-82.6,132.6-28.8,128.7-1446.5,128.7C3869.6,5010,3716,5006.1,3662.2,4979.3z M5654.2,2779.7V1375.5l1070-2510.7c587.8-1379.3,1081.5-2555,1096.9-2612.6c55.7-217.1-34.6-393.8-232.4-453.3c-146-44.2-5029.2-44.2-5175.2,0c-190.2,55.7-290.1,238.2-240.1,438c11.5,44.2,111.4,293.9,220.9,551.3c111.4,259.3,595.5,1396.6,1077.7,2530l876,2057.4v1404.3V4184h653.1h653.1V2779.7z"/><path d="M3854.3-507.1c-46.1-61.5-1394.6-3261.8-1402.3-3332.9c-9.6-78.8-9.6-80.7,63.4-99.9c105.7-28.8,4865.9-28.8,4971.6,0c73,19.2,73,21.2,63.4,99.9C7542.6-3769,6196-568.6,6147.9-507.1c-13.5,17.3-267,23.1-1146.8,23.1C4121.3-484.1,3867.7-489.8,3854.3-507.1z M5243.2-1398.5c390-240.1,219-841.4-242-841.4c-484.1,0-637.8,643.5-207.5,862.5C4935.8-1306.3,5108.7-1314,5243.2-1398.5z M4094.4-2326.3c351.5-180.6,240.1-693.5-149.8-693.5c-126.8,0-215.2,42.3-295.8,142.2c-78.8,96-92.2,272.8-32.7,390C3704.4-2312.9,3925.3-2239.9,4094.4-2326.3z M5331.5-2804.6c63.4-69.2,73-90.3,73-171c0-169.1-105.7-280.5-268.9-282.4c-153.7-1.9-270.9,111.4-272.8,261.3c-3.8,176.7,124.9,293.9,299.7,278.5C5245.1-2725.9,5268.1-2737.4,5331.5-2804.6z"/></g></g>
</svg>