<?xml version="1.0" standalone="no"?>
<!DOCTYPE svg PUBLIC "-//W3C//DTD SVG 20010904//EN"
 "http://www.w3.org/TR/2001/REC-SVG-20010904/DTD/svg10.dtd">
<svg version="1.0" xmlns="http://www.w3.org/2000/svg"
 width="1280.000000pt" height="1216.000000pt" viewBox="0 0 1280.000000 1216.000000"
 preserveAspectRatio="xMidYMid meet">
<metadata>
Created by potrace 1.15, written by Peter Selinger 2001-2017
</metadata>
<g transform="translate(0.000000,1216.000000) scale(0.100000,-0.100000)"
fill="#000000" stroke="none">
<path d="M8370 12151 c-14 -4 -43 -18 -65 -29 -64 -34 -2147 -1604 -2170
-1635 -27 -39 -27 -115 0 -154 26 -35 2135 -1726 2190 -1756 53 -28 173 -31
225 -4 45 22 2169 1719 2193 1752 21 29 32 84 23 119 -3 13 -18 39 -33 57 -36
42 -2135 1617 -2182 1636 -42 18 -145 26 -181 14z"/>
<path d="M3687 10669 c-32 -5 -77 -17 -100 -27 -43 -19 -3179 -2366 -3229
-2416 -86 -87 -80 -224 14 -313 78 -74 3177 -2545 3214 -2562 100 -47 238 -47
338 -1 22 11 550 427 1171 925 622 497 1133 904 1137 905 12 0 543 -422 538
-428 -3 -4 -525 -408 -1160 -899 -635 -491 -1184 -921 -1220 -955 -75 -73
-121 -146 -164 -261 l-31 -82 -3 -1608 c-2 -1568 -2 -1610 17 -1652 32 -73 78
-89 161 -57 14 5 449 337 965 737 l940 726 6 -153 c3 -84 11 -173 18 -198 19
-68 79 -177 125 -226 60 -64 2255 -1782 2294 -1795 45 -15 86 3 106 46 14 29
16 167 16 1277 0 817 -4 1258 -11 1288 -15 68 -73 180 -119 233 -23 25 -300
250 -616 498 -317 248 -578 456 -580 463 -2 6 -3 158 -2 339 l3 327 770 -616
c424 -339 790 -626 815 -637 63 -29 178 -29 241 0 25 11 599 463 1297 1021
1335 1068 1292 1031 1292 1119 -1 85 7 79 -812 694 l-767 576 227 174 c124 96
245 193 268 217 47 48 97 143 113 212 15 65 15 2156 0 2199 -19 54 -69 66
-126 31 -32 -19 -1842 -1415 -1937 -1494 -57 -47 -109 -123 -139 -204 -19 -52
-21 -83 -25 -358 l-4 -301 -302 -226 c-167 -125 -306 -227 -309 -227 -4 0 -8
244 -9 543 l-3 542 -36 75 c-48 100 -68 122 -222 243 -1243 977 -1778 1395
-1807 1411 -44 24 -83 16 -107 -21 -16 -24 -18 -57 -18 -315 0 -207 -3 -287
-11 -284 -6 2 -437 324 -958 715 -520 390 -965 721 -988 735 -73 42 -174 59
-271 45z"/>
<path d="M72 7174 c-17 -7 -39 -27 -49 -46 -17 -31 -18 -107 -18 -1648 l0
-1615 23 -69 c40 -119 106 -229 179 -297 50 -48 2827 -2226 2868 -2250 37 -22
101 -27 131 -11 12 6 30 28 40 49 18 37 19 92 19 1648 l0 1610 -28 80 c-35
100 -93 199 -155 264 -38 41 -2698 2136 -2852 2247 -58 42 -116 56 -158 38z"/>
<path d="M12012 4973 c-17 -10 -542 -413 -1166 -895 -852 -660 -1143 -890
-1170 -927 -48 -65 -93 -164 -106 -230 -11 -59 -15 -2465 -4 -2520 4 -17 18
-42 33 -57 21 -21 32 -25 63 -21 20 3 52 15 70 28 65 45 2234 1723 2267 1753
53 49 109 143 136 228 l25 79 0 1245 c0 1051 -2 1250 -14 1279 -24 56 -74 70
-134 38z"/>
<path d="M10110 170 c0 -91 3 -110 15 -110 11 0 15 13 15 54 0 36 5 60 16 70
37 38 64 10 64 -66 0 -45 3 -58 15 -58 19 0 21 93 2 130 -14 28 -59 39 -83 19
-12 -10 -14 -5 -14 30 0 30 -4 41 -15 41 -12 0 -15 -19 -15 -110z"/>
<path d="M11810 170 c0 -67 4 -110 10 -110 6 0 10 43 10 110 0 67 -4 110 -10
110 -6 0 -10 -43 -10 -110z"/>
<path d="M12100 170 c0 -67 4 -110 10 -110 6 0 10 5 10 12 0 9 3 9 12 0 13
-13 57 -16 75 -4 35 22 38 99 6 135 -18 20 -63 23 -81 5 -9 -9 -12 -3 -12 30
0 23 -4 42 -10 42 -6 0 -10 -43 -10 -110z m94 14 c35 -35 10 -109 -34 -102
-34 4 -49 58 -26 93 19 29 38 32 60 9z"/>
<path d="M10820 168 c-17 -57 -34 -111 -37 -122 -3 -11 -1 -17 7 -14 6 2 25
44 41 93 37 116 43 145 31 145 -6 0 -25 -46 -42 -102z"/>
<path d="M10945 258 c-12 -34 -65 -212 -65 -219 0 -5 4 -9 9 -9 8 0 81 212 81
234 0 11 -21 6 -25 -6z"/>
<path d="M11896 154 c-34 -108 -39 -142 -17 -118 9 9 71 204 71 223 0 6 -4 11
-8 11 -5 0 -25 -52 -46 -116z"/>
<path d="M12296 239 c-19 -23 -26 -42 -26 -74 0 -55 38 -105 79 -105 15 0 36
-9 46 -20 10 -11 25 -20 33 -20 12 0 11 4 -4 21 -14 16 -16 23 -6 26 37 14 54
111 27 162 -17 33 -33 41 -85 41 -30 0 -44 -6 -64 -31z m114 -9 c14 -14 20
-33 20 -65 0 -86 -81 -119 -119 -48 -20 40 -9 104 23 125 20 14 56 8 76 -12z"/>
<path d="M12522 258 c-17 -17 -15 -67 4 -75 13 -5 12 -8 -5 -25 -43 -39 -14
-98 48 -98 49 0 71 16 71 52 0 17 -7 39 -15 48 -14 15 -14 18 0 30 19 16 19
44 -1 64 -18 19 -85 21 -102 4z m86 -34 c4 -31 -23 -50 -53 -36 -14 7 -25 18
-25 25 0 40 72 50 78 11z m-10 -73 c8 -5 12 -21 10 -37 -3 -32 -38 -45 -64
-24 -40 34 9 90 54 61z"/>
<path d="M10300 241 c0 -11 -6 -22 -12 -25 -10 -5 -10 -7 0 -12 7 -4 12 -27
12 -63 0 -31 5 -62 12 -69 14 -14 68 -16 68 -2 0 6 -11 10 -25 10 -28 0 -39
26 -33 81 2 29 7 34 31 37 37 4 35 22 -3 22 -23 0 -30 4 -30 20 0 11 -4 20
-10 20 -5 0 -10 -9 -10 -19z"/>
<path d="M10410 241 c0 -11 -6 -22 -12 -25 -10 -5 -10 -7 0 -12 7 -3 12 -25
12 -55 0 -66 13 -89 50 -89 35 0 41 17 8 22 -20 3 -23 10 -26 61 -3 55 -2 57
23 57 14 0 25 5 25 10 0 6 -11 10 -25 10 -18 0 -25 5 -25 20 0 11 -7 20 -15
20 -8 0 -15 -9 -15 -19z"/>
<path d="M11980 242 c0 -10 -5 -23 -12 -30 -8 -8 -8 -12 -1 -12 6 0 13 -27 15
-61 3 -38 10 -64 19 -70 18 -12 59 -12 59 0 0 5 -10 11 -22 13 -20 3 -23 10
-26 61 -3 55 -2 57 23 57 14 0 25 5 25 10 0 6 -11 10 -25 10 -18 0 -25 5 -25
20 0 11 -7 20 -15 20 -8 0 -15 -8 -15 -18z"/>
<path d="M10527 213 c-4 -3 -7 -53 -7 -110 0 -85 3 -103 15 -103 11 0 15 11
15 42 0 33 3 39 12 30 18 -18 63 -14 83 8 23 25 22 95 -1 121 -19 21 -64 25
-82 7 -9 -9 -12 -9 -12 0 0 13 -13 16 -23 5z m102 -45 c21 -36 5 -82 -29 -86
-45 -7 -69 67 -34 103 22 22 45 15 63 -17z"/>
<path d="M11010 200 c-27 -27 -27 -89 0 -118 21 -23 64 -30 75 -12 11 18 23
11 18 -10 -7 -27 -39 -43 -70 -35 -18 4 -24 2 -21 -7 8 -23 74 -22 97 1 18 18
21 34 21 111 0 80 -10 113 -23 78 -4 -10 -7 -10 -18 0 -19 18 -56 15 -79 -8z
m78 -12 c17 -17 15 -83 -3 -98 -12 -10 -21 -10 -40 -2 -43 20 -31 112 15 112
9 0 21 -5 28 -12z"/>
<path d="M11191 194 c-23 -30 -27 -64 -10 -97 16 -30 28 -37 65 -37 42 0 69
31 69 80 0 76 -80 110 -124 54z m83 -10 c33 -32 13 -104 -29 -104 -42 0 -62
72 -29 104 20 20 38 20 58 0z"/>
<path d="M11370 200 c-24 -24 -27 -86 -4 -118 11 -16 25 -22 54 -22 47 0 70
27 70 82 0 47 -28 78 -70 78 -17 0 -39 -9 -50 -20z m88 -32 c24 -51 -24 -110
-63 -78 -18 15 -20 81 -3 98 20 20 52 10 66 -20z"/>
<path d="M11631 194 c-12 -15 -21 -39 -21 -54 0 -34 35 -80 61 -80 11 0 29 5
40 10 23 13 24 2 3 -29 -14 -19 -23 -22 -51 -18 -24 4 -33 2 -30 -6 7 -22 74
-20 96 2 18 18 21 34 21 111 0 53 -4 90 -10 90 -5 0 -10 -5 -10 -12 0 -9 -3
-9 -12 0 -21 21 -65 14 -87 -14z m89 -26 c13 -25 13 -31 0 -55 -19 -33 -42
-40 -64 -18 -18 19 -21 57 -5 86 14 28 50 21 69 -13z"/>
<path d="M12696 205 c-30 -31 -16 -62 36 -75 29 -8 38 -16 36 -28 -3 -13 -14
-17 -46 -16 -29 0 -42 -3 -42 -13 0 -19 94 -18 110 2 23 28 4 63 -41 75 -30 8
-39 16 -37 28 3 13 13 17 41 16 49 -2 44 20 -5 24 -23 2 -41 -3 -52 -13z"/>
<path d="M10710 196 c0 -18 16 -29 30 -21 13 8 1 35 -16 35 -8 0 -14 -6 -14
-14z"/>
<path d="M10717 93 c-4 -3 -7 -12 -7 -20 0 -17 26 -17 33 1 8 21 -11 35 -26
19z"/>
<path d="M11537 94 c-14 -14 -7 -34 12 -34 12 0 18 6 17 17 -3 19 -18 27 -29
17z"/>
</g>
</svg>
