<?xml version="1.0" encoding="iso-8859-1"?>
<!-- Generator: Adobe Illustrator 19.0.0, SVG Export Plug-In . SVG Version: 6.00 Build 0)  -->
<svg version="1.1" id="Layer_1" xmlns="http://www.w3.org/2000/svg" xmlns:xlink="http://www.w3.org/1999/xlink" x="0px" y="0px"
	 viewBox="0 0 512 512" style="enable-background:new 0 0 512 512;" xml:space="preserve">
<g>
	<g>
		<path d="M494.932,271.274l-30.285-22.71l24.166-56.394c1.368-3.189,0.776-6.877-1.513-9.478c-2.298-2.605-5.895-3.645-9.211-2.697
			l-55.079,15.737l-14.952-37.386c-1.123-2.803-3.579-4.855-6.535-5.461c-2.961-0.588-6.022,0.316-8.158,2.447l-59.03,59.03
			l29.237-131.573c0.733-3.29-0.439-6.711-3.035-8.864c-2.592-2.154-6.175-2.667-9.272-1.338l-54.144,23.201l-32.68-89.876
			C263.149,2.364,259.776,0,256,0c-3.776,0-7.149,2.364-8.443,5.912l-32.68,89.876l-54.144-23.201
			c-3.101-1.329-6.675-0.816-9.272,1.338c-2.597,2.154-3.768,5.574-3.035,8.864l29.237,131.573l-59.03-59.03
			c-2.132-2.132-5.184-3.035-8.158-2.447c-2.956,0.605-5.412,2.658-6.535,5.461l-14.952,37.386L33.91,179.994
			c-3.333-0.947-6.912,0.092-9.211,2.697c-2.289,2.601-2.882,6.289-1.513,9.478l24.166,56.394l-30.285,22.71
			c-2.189,1.64-3.509,4.184-3.588,6.921c-0.079,2.737,1.088,5.351,3.175,7.123l112.727,95.385l-7.943,39.71
			c-0.579,2.895,0.298,5.895,2.355,8.009c2.052,2.123,4.443,3.07,7.368,2.614l96.767-16.219V485c0,14.886,12.088,27,26.947,27
			c14.86,0,26.947-12.114,26.947-27v-70.184l97.89,16.219c2.917,0.456,6.158-0.491,8.21-2.614c2.057-2.114,3.075-5.114,2.496-8.009
			l-7.873-39.71l112.762-95.385c2.088-1.772,3.289-4.386,3.21-7.123C498.441,275.458,497.121,272.914,494.932,271.274z
			 M366.968,370.405c-2.496,2.114-3.645,5.412-3.004,8.623l6.43,32.149l-94.951-15.824c-2.605-0.439-5.829,0.298-7.846,2.009
			c-2.013,1.702-3.737,4.211-3.737,6.851V485c0,4.983-4.031,9.035-8.982,9.035c-4.952,0-8.982-4.052-8.982-9.035v-80.789
			c0-2.64-0.601-5.149-2.614-6.851c-1.636-1.386-3.416-2.132-5.526-2.132c-0.491,0-0.847,0.044-1.338,0.123l-94.881,15.824
			l6.465-32.149c0.64-3.211-0.491-6.509-2.987-8.623L36.857,278.879l26.916-20.184c3.311-2.482,4.498-6.912,2.866-10.719
			l-19.503-45.517l44.711,12.772c4.469,1.289,9.101-1.022,10.811-5.298l12.903-32.267l71.21,71.214
			c2.824,2.825,7.171,3.447,10.671,1.526c3.504-1.921,5.316-5.93,4.447-9.824L169.764,95.999l46.767,20.044
			c2.276,0.978,4.842,0.982,7.11-0.013c2.263-0.978,4.026-2.851,4.873-5.171L256,35.267l27.487,75.591
			c0.847,2.32,2.61,4.193,4.873,5.171c2.272,0.987,4.838,0.982,7.11,0.013l46.767-20.044l-32.127,144.582
			c-0.868,3.895,0.943,7.903,4.447,9.824c3.491,1.921,7.851,1.298,10.671-1.526l71.21-71.214l12.903,32.267
			c1.711,4.276,6.346,6.579,10.811,5.298l44.71-12.772l-19.504,45.517c-1.631,3.807-0.447,8.237,2.864,10.719l26.912,20.184
			L366.968,370.405z"/>
	</g>
</g>
<g>
</g>
<g>
</g>
<g>
</g>
<g>
</g>
<g>
</g>
<g>
</g>
<g>
</g>
<g>
</g>
<g>
</g>
<g>
</g>
<g>
</g>
<g>
</g>
<g>
</g>
<g>
</g>
<g>
</g>
</svg>
