<?xml version="1.0" standalone="no"?>
<!DOCTYPE svg PUBLIC "-//W3C//DTD SVG 20010904//EN"
 "http://www.w3.org/TR/2001/REC-SVG-20010904/DTD/svg10.dtd">
<svg version="1.0" xmlns="http://www.w3.org/2000/svg"
 width="1280.000000pt" height="756.000000pt" viewBox="0 0 1280.000000 756.000000"
 preserveAspectRatio="xMidYMid meet">
<metadata>
Created by potrace 1.15, written by Peter Selinger 2001-2017
</metadata>
<g transform="translate(0.000000,756.000000) scale(0.100000,-0.100000)"
fill="#000000" stroke="none">
<path d="M6370 7315 l0 -245 25 0 25 0 0 245 0 245 -25 0 -25 0 0 -245z"/>
<path d="M6550 7390 l0 -170 190 0 190 0 0 170 0 170 -190 0 -190 0 0 -170z"/>
<path d="M6960 7390 l0 -170 70 0 70 0 0 170 0 170 -70 0 -70 0 0 -170z"/>
<path d="M6325 7028 c-4 -12 -195 -818 -195 -825 0 -2 120 -3 266 -3 l266 0
-7 31 c-4 18 -53 205 -110 418 l-102 386 -57 3 c-39 2 -58 -1 -61 -10z"/>
<path d="M6144 6161 c-2 -2 -4 -222 -4 -488 l0 -483 395 0 395 0 0 195 0 195
-120 0 -120 0 0 293 0 292 -271 0 c-149 0 -273 -2 -275 -4z m400 -480 c22 -14
54 -48 71 -75 27 -44 30 -58 30 -126 0 -68 -3 -82 -30 -126 -19 -30 -49 -60
-80 -79 -44 -27 -57 -30 -129 -30 -70 0 -86 4 -121 26 -82 54 -118 118 -118
209 0 121 81 218 196 239 58 10 134 -6 181 -38z"/>
<path d="M5932 5797 c-29 -101 -52 -187 -52 -190 0 -4 47 -7 105 -7 58 0 105
3 105 7 0 8 -101 367 -104 371 -2 1 -26 -80 -54 -181z"/>
<path d="M6807 5963 c-7 -12 -97 -338 -97 -352 0 -7 33 -11 106 -11 96 0 105
2 100 18 -3 9 -26 91 -52 182 -25 91 -47 166 -49 168 -2 2 -5 0 -8 -5z"/>
<path d="M5870 5385 l0 -195 115 0 115 0 0 195 0 195 -115 0 -115 0 0 -195z"/>
<path d="M5870 2585 l0 -2585 128 0 128 0 17 143 c44 386 149 573 296 528 106
-31 182 -215 218 -528 l17 -143 128 0 128 0 0 2585 0 2585 -530 0 -530 0 0
-2585z"/>
<path d="M276 2771 c-3 -4 -62 -167 -132 -362 -69 -195 -130 -355 -135 -357
-5 -2 -9 -419 -9 -1028 l0 -1024 473 0 474 0 6 1022 c4 561 3 1026 -2 1032 -4
6 -77 166 -161 356 -84 190 -158 351 -163 358 -11 14 -342 18 -351 3z"/>
<path d="M2556 2713 c-14 -38 -73 -197 -131 -356 l-105 -287 0 -1035 0 -1035
473 0 474 0 6 128 c4 70 7 528 7 1019 l0 892 -170 368 -169 368 -180 3 -179 2
-26 -67z"/>
<path d="M9842 2738 c-11 -24 -87 -191 -171 -371 l-151 -328 0 -892 c0 -491 3
-949 7 -1019 l6 -128 473 0 474 0 2 1028 3 1029 -117 319 c-65 175 -125 338
-134 362 l-16 42 -178 0 -179 0 -19 -42z"/>
<path d="M12173 2768 c-5 -7 -79 -168 -163 -358 -84 -190 -157 -350 -161 -356
-5 -6 -6 -471 -2 -1032 l6 -1022 474 0 473 0 0 1020 c0 727 -3 1024 -11 1033
-6 7 -68 172 -138 367 l-126 355 -171 3 c-129 2 -174 -1 -181 -10z"/>
<path d="M1377 2473 c-3 -4 -29 -101 -58 -215 l-53 -208 -57 0 -58 0 -3 -92
-3 -93 -77 -3 -78 -3 0 -929 0 -930 645 0 645 0 0 1025 0 1025 -305 0 -304 0
-69 213 -68 212 -76 3 c-42 2 -78 -1 -81 -5z"/>
<path d="M3631 2443 c-52 -198 -101 -386 -101 -390 0 -2 -15 -3 -32 -1 l-33 3
-3 153 -3 152 -54 0 -55 0 0 -210 0 -210 55 0 c48 0 55 -2 55 -20 0 -18 -7
-20 -70 -20 l-69 0 -4 73 c-1 39 -4 -388 -5 -950 l-2 -1023 1275 0 1275 0 0
1024 c0 643 -4 1026 -10 1028 -5 2 -40 98 -77 213 l-69 210 -78 0 -79 0 -27
-105 c-15 -58 -40 -153 -55 -212 l-28 -107 -131 -3 -131 -3 -3 -72 -3 -73 -84
0 -85 0 0 75 0 75 -95 0 -95 0 0 -75 0 -75 -80 0 c-73 0 -80 2 -80 20 0 18 7
20 70 20 l70 0 0 210 0 210 -70 0 -70 0 0 -155 0 -155 -358 0 -359 0 -69 215
-69 215 -77 0 -77 0 -10 -37z"/>
<path d="M7097 2473 c-3 -4 -35 -100 -71 -212 l-66 -203 0 -1029 0 -1029 1265
0 1265 0 0 1019 c0 669 -3 1022 -10 1026 -6 4 -10 68 -10 161 l0 154 -65 0
-65 0 0 -210 0 -210 65 0 c58 0 65 -2 65 -20 0 -18 -7 -20 -70 -20 l-70 0 0
75 0 75 -30 0 c-16 0 -30 2 -30 4 0 3 -52 202 -101 389 l-10 37 -77 0 -77 0
-69 -215 -69 -215 -359 0 -358 0 0 -75 0 -76 -72 3 -73 3 -3 73 -3 72 -109 0
-109 0 -3 -72 -3 -73 -67 -3 -68 -3 0 76 0 75 -138 0 -139 0 -28 108 c-15 59
-40 154 -55 212 l-27 105 -76 3 c-41 2 -77 -1 -80 -5z"/>
<path d="M11267 2473 c-2 -4 -34 -101 -71 -215 l-67 -208 -309 0 -310 0 0
-1025 0 -1025 650 0 650 0 -2 931 -3 932 -75 1 -75 1 -3 93 -3 92 -57 0 -58 0
-55 213 -54 212 -77 3 c-42 2 -78 -1 -81 -5z"/>
<path d="M5030 2150 l0 -210 60 0 60 0 0 210 0 210 -60 0 -60 0 0 -210z"/>
<path d="M7660 2150 l0 -210 55 0 55 0 0 210 0 210 -55 0 -55 0 0 -210z"/>
<path d="M8040 2150 l0 -210 40 0 40 0 0 210 0 210 -40 0 -40 0 0 -210z"/>
<path d="M996 2104 c-3 -118 -4 -220 -1 -225 4 -5 35 -9 71 -9 l64 0 0 225 0
225 -63 0 -64 0 -7 -216z"/>
<path d="M11660 2095 l0 -225 65 0 65 0 0 225 0 225 -65 0 -65 0 0 -225z"/>
</g>
</svg>
